<svg width="499" height="87" viewBox="0 0 499 87" fill="none" xmlns="http://www.w3.org/2000/svg">
<g clip-path="url(#clip0_214_2)">
<g filter="url(#filter0_d_214_2)">
<path d="M466.749 21.5259H32.2514C28.2932 21.5259 25.0845 24.7384 25.0845 28.7011V51.1238C25.0845 55.0866 28.2932 58.2991 32.2514 58.2991H466.749C470.707 58.2991 473.916 55.0866 473.916 51.1238V28.7011C473.916 24.7384 470.707 21.5259 466.749 21.5259Z" fill="white"/>
</g>
<path d="M47.6777 34.1362V35.4636H44.2734V46.6391H42.6429V35.4636H39.2207V34.1362H47.6777ZM54.5583 36.6296C55.2989 36.6296 55.9678 36.791 56.565 37.1139C57.1623 37.4249 57.6282 37.8972 57.9626 38.531C58.309 39.1649 58.4822 39.9362 58.4822 40.845V46.6391H56.8696V41.0782C56.8696 40.0977 56.6248 39.3502 56.135 38.836C55.6453 38.3098 54.9764 38.0467 54.1283 38.0467C53.2682 38.0467 52.5815 38.3158 52.0678 38.8539C51.5661 39.3921 51.3152 40.1753 51.3152 41.2038V46.6391H49.6847V33.3648H51.3152V38.2081C51.6377 37.7059 52.0798 37.3172 52.6411 37.0422C53.2145 36.7671 53.8536 36.6296 54.5583 36.6296ZM61.9877 35.2125C61.6771 35.2125 61.4144 35.1048 61.1994 34.8896C60.9844 34.6743 60.8769 34.4113 60.8769 34.1003C60.8769 33.7893 60.9844 33.5263 61.1994 33.311C61.4144 33.0958 61.6771 32.9881 61.9877 32.9881C62.2863 32.9881 62.5372 33.0958 62.7403 33.311C62.9553 33.5263 63.0628 33.7893 63.0628 34.1003C63.0628 34.4113 62.9553 34.6743 62.7403 34.8896C62.5372 35.1048 62.2863 35.2125 61.9877 35.2125ZM62.7761 36.809V46.6391H61.1456V36.809H62.7761ZM69.031 46.8005C68.2785 46.8005 67.6035 46.6749 67.0063 46.4238C66.409 46.1607 65.9372 45.802 65.5908 45.3475C65.2444 44.8811 65.0533 44.349 65.0175 43.751H66.7017C66.7495 44.2414 66.9764 44.6419 67.3826 44.9529C67.8006 45.2638 68.3441 45.4193 69.0131 45.4193C69.6342 45.4193 70.1239 45.2818 70.4823 45.0067C70.8406 44.7316 71.0198 44.3849 71.0198 43.9663C71.0198 43.5358 70.8286 43.2189 70.4465 43.0156C70.0642 42.8003 69.4729 42.5911 68.6726 42.3877C67.9439 42.1964 67.3467 42.005 66.8809 41.8137C66.427 41.6104 66.0328 41.3174 65.6983 40.9347C65.3758 40.5401 65.2146 40.0259 65.2146 39.3921C65.2146 38.8898 65.3638 38.4294 65.6625 38.0108C65.9611 37.5922 66.3851 37.2634 66.9346 37.0242C67.4841 36.7731 68.1112 36.6475 68.816 36.6475C69.9029 36.6475 70.7809 36.9226 71.4498 37.4727C72.1187 38.0227 72.477 38.7761 72.5249 39.7329H70.8944C70.8586 39.2187 70.6495 38.8061 70.2673 38.4951C69.8969 38.1842 69.3952 38.0288 68.7622 38.0288C68.1769 38.0288 67.711 38.1543 67.3647 38.4055C67.0182 38.6566 66.8451 38.9855 66.8451 39.3921C66.8451 39.7149 66.9466 39.984 67.1497 40.1993C67.3647 40.4026 67.6274 40.57 67.938 40.7015C68.2605 40.8211 68.7025 40.9587 69.2639 41.1141C69.9686 41.3054 70.542 41.4968 70.984 41.6881C71.4259 41.8675 71.8022 42.1426 72.1128 42.5133C72.4353 42.884 72.6025 43.3683 72.6145 43.9663C72.6145 44.5044 72.4651 44.9888 72.1665 45.4193C71.8678 45.8498 71.4438 46.1906 70.8944 46.4417C70.3569 46.681 69.7357 46.8005 69.031 46.8005ZM91.5005 36.6296C92.2647 36.6296 92.9455 36.791 93.5431 37.1139C94.1406 37.4249 94.6119 37.8972 94.9586 38.531C95.3053 39.1649 95.4782 39.9362 95.4782 40.845V46.6391H93.8656V41.0782C93.8656 40.0977 93.621 39.3502 93.131 38.836C92.6535 38.3098 92.0022 38.0467 91.178 38.0467C90.3296 38.0467 89.655 38.3218 89.1533 38.8719C88.6516 39.41 88.4008 40.1933 88.4008 41.2217V46.6391H86.7882V41.0782C86.7882 40.0977 86.5434 39.3502 86.0536 38.836C85.5758 38.3098 84.9248 38.0467 84.1006 38.0467C83.2525 38.0467 82.5776 38.3218 82.0759 38.8719C81.5742 39.41 81.3234 40.1933 81.3234 41.2217V46.6391H79.6929V36.809H81.3234V38.2261C81.6459 37.7119 82.0759 37.3172 82.6135 37.0422C83.1629 36.7671 83.7662 36.6296 84.4231 36.6296C85.2473 36.6296 85.9759 36.815 86.609 37.1857C87.2422 37.5564 87.7139 38.1005 88.0245 38.818C88.2993 38.1245 88.7531 37.5863 89.3862 37.2036C90.0196 36.8209 90.7238 36.6296 91.5005 36.6296ZM97.5431 41.6881C97.5431 40.6836 97.7465 39.8046 98.1523 39.0512C98.5591 38.2859 99.1145 37.6939 99.8187 37.2754C100.535 36.8568 101.33 36.6475 102.202 36.6475C103.062 36.6475 103.809 36.8329 104.441 37.2036C105.075 37.5743 105.547 38.0407 105.857 38.6028V36.809H107.505V46.6391H105.857V44.8094C105.534 45.3834 105.051 45.8617 104.406 46.2444C103.773 46.6151 103.032 46.8005 102.184 46.8005C101.312 46.8005 100.524 46.5853 99.8187 46.1547C99.1145 45.7242 98.5591 45.1203 98.1523 44.343C97.7465 43.5656 97.5431 42.6807 97.5431 41.6881ZM105.857 41.7061C105.857 40.9646 105.708 40.3188 105.409 39.7688C105.111 39.2187 104.705 38.8001 104.191 38.5131C103.689 38.2141 103.133 38.0646 102.524 38.0646C101.915 38.0646 101.36 38.2081 100.858 38.4951C100.356 38.7822 99.9566 39.2007 99.6574 39.7508C99.3591 40.3009 99.2095 40.9467 99.2095 41.6881C99.2095 42.4415 99.3591 43.0992 99.6574 43.6613C99.9566 44.2114 100.356 44.636 100.858 44.9349C101.36 45.222 101.915 45.3655 102.524 45.3655C103.133 45.3655 103.689 45.222 104.191 44.9349C104.705 44.636 105.111 44.2114 105.409 43.6613C105.708 43.0992 105.857 42.4476 105.857 41.7061ZM111.891 38.6207C112.214 38.0586 112.691 37.5922 113.325 37.2215C113.97 36.8388 114.716 36.6475 115.564 36.6475C116.436 36.6475 117.225 36.8568 117.93 37.2754C118.646 37.6939 119.208 38.2859 119.614 39.0512C120.02 39.8046 120.223 40.6836 120.223 41.6881C120.223 42.6807 120.02 43.5656 119.614 44.343C119.208 45.1203 118.646 45.7242 117.93 46.1547C117.225 46.5853 116.436 46.8005 115.564 46.8005C114.729 46.8005 113.988 46.6151 113.343 46.2444C112.709 45.8617 112.226 45.3894 111.891 44.8273V51.303H110.261V36.809H111.891V38.6207ZM118.557 41.6881C118.557 40.9467 118.407 40.3009 118.109 39.7508C117.81 39.2007 117.404 38.7822 116.89 38.4951C116.389 38.2081 115.833 38.0646 115.224 38.0646C114.627 38.0646 114.071 38.2141 113.558 38.5131C113.056 38.8001 112.65 39.2246 112.339 39.7867C112.041 40.3368 111.891 40.9766 111.891 41.7061C111.891 42.4476 112.041 43.0992 112.339 43.6613C112.65 44.2114 113.056 44.636 113.558 44.9349C114.071 45.222 114.627 45.3655 115.224 45.3655C115.833 45.3655 116.389 45.222 116.89 44.9349C117.404 44.636 117.81 44.2114 118.109 43.6613C118.407 43.0992 118.557 42.4415 118.557 41.6881ZM130.622 46.8005C129.87 46.8005 129.194 46.6749 128.598 46.4238C128 46.1607 127.528 45.802 127.182 45.3475C126.835 44.8811 126.645 44.349 126.609 43.751H128.293C128.34 44.2414 128.567 44.6419 128.974 44.9529C129.391 45.2638 129.935 45.4193 130.604 45.4193C131.225 45.4193 131.715 45.2818 132.074 45.0067C132.432 44.7316 132.611 44.3849 132.611 43.9663C132.611 43.5358 132.419 43.2189 132.038 43.0156C131.655 42.8003 131.064 42.5911 130.264 42.3877C129.535 42.1964 128.938 42.005 128.472 41.8137C128.018 41.6104 127.624 41.3174 127.29 40.9347C126.967 40.5401 126.806 40.0259 126.806 39.3921C126.806 38.8898 126.955 38.4294 127.254 38.0108C127.552 37.5922 127.976 37.2634 128.526 37.0242C129.075 36.7731 129.702 36.6475 130.407 36.6475C131.494 36.6475 132.372 36.9226 133.041 37.4727C133.709 38.0227 134.068 38.7761 134.116 39.7329H132.486C132.45 39.2187 132.24 38.8061 131.859 38.4951C131.488 38.1842 130.986 38.0288 130.354 38.0288C129.768 38.0288 129.302 38.1543 128.956 38.4055C128.609 38.6566 128.436 38.9855 128.436 39.3921C128.436 39.7149 128.538 39.984 128.741 40.1993C128.956 40.4026 129.218 40.57 129.529 40.7015C129.852 40.8211 130.293 40.9587 130.855 41.1141C131.559 41.3054 132.133 41.4968 132.575 41.6881C133.017 41.8675 133.393 42.1426 133.704 42.5133C134.027 42.884 134.193 43.3683 134.206 43.9663C134.206 44.5044 134.056 44.9888 133.758 45.4193C133.459 45.8498 133.035 46.1906 132.486 46.4417C131.948 46.681 131.326 46.8005 130.622 46.8005ZM141.381 36.6296C142.122 36.6296 142.79 36.791 143.388 37.1139C143.985 37.4249 144.451 37.8972 144.785 38.531C145.132 39.1649 145.305 39.9362 145.305 40.845V46.6391H143.692V41.0782C143.692 40.0977 143.448 39.3502 142.958 38.836C142.467 38.3098 141.799 38.0467 140.951 38.0467C140.091 38.0467 139.404 38.3158 138.89 38.8539C138.389 39.3921 138.138 40.1753 138.138 41.2038V46.6391H136.507V33.3648H138.138V38.2081C138.46 37.7059 138.902 37.3172 139.464 37.0422C140.037 36.7671 140.676 36.6296 141.381 36.6296ZM152.25 46.8005C151.33 46.8005 150.494 46.5913 149.742 46.1727C149.001 45.7541 148.416 45.1621 147.986 44.3968C147.568 43.6194 147.359 42.7225 147.359 41.7061C147.359 40.7015 147.574 39.8166 148.004 39.0512C148.446 38.2739 149.043 37.6819 149.796 37.2754C150.548 36.8568 151.39 36.6475 152.322 36.6475C153.254 36.6475 154.096 36.8568 154.848 37.2754C155.601 37.6819 156.192 38.268 156.622 39.0333C157.064 39.7986 157.285 40.6896 157.285 41.7061C157.285 42.7225 157.059 43.6194 156.604 44.3968C156.163 45.1621 155.559 45.7541 154.795 46.1727C154.03 46.5913 153.182 46.8005 152.25 46.8005ZM152.25 45.3655C152.835 45.3655 153.385 45.228 153.899 44.9529C154.412 44.6778 154.824 44.2652 155.135 43.7152C155.458 43.1651 155.619 42.4954 155.619 41.7061C155.619 40.9168 155.464 40.2471 155.153 39.697C154.842 39.1469 154.436 38.7403 153.935 38.4772C153.433 38.2021 152.889 38.0646 152.304 38.0646C151.707 38.0646 151.157 38.2021 150.656 38.4772C150.166 38.7403 149.772 39.1469 149.473 39.697C149.175 40.2471 149.025 40.9168 149.025 41.7061C149.025 42.5073 149.169 43.183 149.455 43.7331C149.754 44.2832 150.148 44.6957 150.638 44.9708C151.128 45.2339 151.665 45.3655 152.25 45.3655ZM172.509 36.809L169.445 46.6391H167.761L165.395 38.836L163.03 46.6391H161.346L158.264 36.809H159.931L162.188 45.0605L164.625 36.809H166.291L168.674 45.0784L170.896 36.809H172.509ZM177.603 46.8005C176.85 46.8005 176.176 46.6749 175.578 46.4238C174.981 46.1607 174.509 45.802 174.162 45.3475C173.817 44.8811 173.625 44.349 173.589 43.751H175.273C175.322 44.2414 175.548 44.6419 175.954 44.9529C176.373 45.2638 176.916 45.4193 177.585 45.4193C178.206 45.4193 178.696 45.2818 179.054 45.0067C179.412 44.7316 179.591 44.3849 179.591 43.9663C179.591 43.5358 179.401 43.2189 179.018 43.0156C178.636 42.8003 178.045 42.5911 177.244 42.3877C176.516 42.1964 175.918 42.005 175.453 41.8137C174.999 41.6104 174.605 41.3174 174.27 40.9347C173.947 40.5401 173.786 40.0259 173.786 39.3921C173.786 38.8898 173.936 38.4294 174.234 38.0108C174.533 37.5922 174.957 37.2634 175.506 37.0242C176.056 36.7731 176.683 36.6475 177.388 36.6475C178.475 36.6475 179.353 36.9226 180.021 37.4727C180.691 38.0227 181.049 38.7761 181.097 39.7329H179.466C179.43 39.2187 179.221 38.8061 178.839 38.4951C178.469 38.1842 177.967 38.0288 177.334 38.0288C176.749 38.0288 176.283 38.1543 175.936 38.4055C175.591 38.6566 175.417 38.9855 175.417 39.3921C175.417 39.7149 175.519 39.984 175.721 40.1993C175.936 40.4026 176.2 40.57 176.51 40.7015C176.832 40.8211 177.275 40.9587 177.836 41.1141C178.541 41.3054 179.114 41.4968 179.556 41.6881C179.998 41.8675 180.374 42.1426 180.684 42.5133C181.007 42.884 181.174 43.3683 181.186 43.9663C181.186 44.5044 181.037 44.9888 180.738 45.4193C180.44 45.8498 180.016 46.1906 179.466 46.4417C178.929 46.681 178.308 46.8005 177.603 46.8005ZM190.253 38.1543V43.9483C190.253 44.4267 190.355 44.7675 190.558 44.9708C190.761 45.1621 191.113 45.2578 191.615 45.2578H192.815V46.6391H191.346C190.439 46.6391 189.758 46.4298 189.304 46.0112C188.85 45.5926 188.623 44.9051 188.623 43.9483V38.1543H187.351V36.809H188.623V34.3335H190.253V36.809H192.815V38.1543H190.253ZM199.665 36.6296C200.405 36.6296 201.074 36.791 201.672 37.1139C202.269 37.4249 202.734 37.8972 203.07 38.531C203.415 39.1649 203.589 39.9362 203.589 40.845V46.6391H201.977V41.0782C201.977 40.0977 201.731 39.3502 201.242 38.836C200.752 38.3098 200.083 38.0467 199.235 38.0467C198.375 38.0467 197.688 38.3158 197.175 38.8539C196.673 39.3921 196.422 40.1753 196.422 41.2038V46.6391H194.792V33.3648H196.422V38.2081C196.745 37.7059 197.186 37.3172 197.748 37.0422C198.321 36.7671 198.96 36.6296 199.665 36.6296ZM215.211 41.3473C215.211 41.6583 215.193 41.9871 215.158 42.3339H207.31C207.369 43.3026 207.698 44.062 208.295 44.6121C208.904 45.1502 209.639 45.4193 210.499 45.4193C211.203 45.4193 211.789 45.2578 212.255 44.9349C212.732 44.6001 213.067 44.1576 213.258 43.6075H215.014C214.751 44.5522 214.226 45.3236 213.437 45.9215C212.649 46.5075 211.669 46.8005 210.499 46.8005C209.567 46.8005 208.731 46.5913 207.991 46.1727C207.261 45.7541 206.688 45.1621 206.27 44.3968C205.852 43.6194 205.643 42.7225 205.643 41.7061C205.643 40.6896 205.846 39.7986 206.253 39.0333C206.658 38.268 207.225 37.6819 207.955 37.2754C208.695 36.8568 209.543 36.6475 210.499 36.6475C211.431 36.6475 212.255 36.8509 212.972 37.2574C213.688 37.664 214.237 38.2261 214.62 38.9436C215.014 39.6492 215.211 40.4504 215.211 41.3473ZM213.527 41.0065C213.527 40.3847 213.389 39.8524 213.115 39.41C212.84 38.9555 212.464 38.6147 211.986 38.3875C211.52 38.1483 211.001 38.0288 210.427 38.0288C209.603 38.0288 208.898 38.2918 208.313 38.818C207.74 39.3443 207.411 40.0737 207.328 41.0065H213.527ZM223.77 38.4055C224.057 37.8434 224.463 37.4069 224.989 37.096C225.526 36.785 226.178 36.6296 226.942 36.6296V38.3158H226.512C224.684 38.3158 223.77 39.3084 223.77 41.2935V46.6391H222.14V36.809H223.77V38.4055ZM237.783 41.3473C237.783 41.6583 237.765 41.9871 237.729 42.3339H229.881C229.941 43.3026 230.269 44.062 230.867 44.6121C231.476 45.1502 232.21 45.4193 233.07 45.4193C233.776 45.4193 234.361 45.2578 234.826 44.9349C235.304 44.6001 235.639 44.1576 235.83 43.6075H237.586C237.323 44.5522 236.797 45.3236 236.009 45.9215C235.221 46.5075 234.241 46.8005 233.07 46.8005C232.139 46.8005 231.303 46.5913 230.562 46.1727C229.834 45.7541 229.26 45.1621 228.842 44.3968C228.424 43.6194 228.215 42.7225 228.215 41.7061C228.215 40.6896 228.418 39.7986 228.824 39.0333C229.23 38.268 229.798 37.6819 230.526 37.2754C231.267 36.8568 232.115 36.6475 233.07 36.6475C234.002 36.6475 234.826 36.8509 235.543 37.2574C236.26 37.664 236.809 38.2261 237.191 38.9436C237.586 39.6492 237.783 40.4504 237.783 41.3473ZM236.098 41.0065C236.098 40.3847 235.961 39.8524 235.686 39.41C235.411 38.9555 235.035 38.6147 234.558 38.3875C234.092 38.1483 233.572 38.0288 232.999 38.0288C232.175 38.0288 231.47 38.2918 230.885 38.818C230.311 39.3443 229.982 40.0737 229.899 41.0065H236.098ZM239.325 41.6881C239.325 40.6836 239.529 39.8046 239.935 39.0512C240.341 38.2859 240.897 37.6939 241.601 37.2754C242.318 36.8568 243.112 36.6475 243.984 36.6475C244.844 36.6475 245.591 36.8329 246.224 37.2036C246.857 37.5743 247.329 38.0407 247.639 38.6028V36.809H249.288V46.6391H247.639V44.8094C247.317 45.3834 246.833 45.8617 246.188 46.2444C245.555 46.6151 244.814 46.8005 243.966 46.8005C243.094 46.8005 242.306 46.5853 241.601 46.1547C240.897 45.7242 240.341 45.1203 239.935 44.343C239.529 43.5656 239.325 42.6807 239.325 41.6881ZM247.639 41.7061C247.639 40.9646 247.49 40.3188 247.191 39.7688C246.893 39.2187 246.487 38.8001 245.973 38.5131C245.471 38.2141 244.916 38.0646 244.306 38.0646C243.697 38.0646 243.142 38.2081 242.64 38.4951C242.138 38.7822 241.739 39.2007 241.44 39.7508C241.141 40.3009 240.992 40.9467 240.992 41.6881C240.992 42.4415 241.141 43.0992 241.44 43.6613C241.739 44.2114 242.138 44.636 242.64 44.9349C243.142 45.222 243.697 45.3655 244.306 45.3655C244.916 45.3655 245.471 45.222 245.973 44.9349C246.487 44.636 246.893 44.2114 247.191 43.6613C247.49 43.0992 247.639 42.4476 247.639 41.7061ZM251.434 41.7061C251.434 40.6896 251.636 39.8046 252.043 39.0512C252.449 38.2859 253.011 37.6939 253.727 37.2754C254.456 36.8568 255.286 36.6475 256.218 36.6475C257.424 36.6475 258.416 36.9405 259.192 37.5265C259.981 38.1124 260.5 38.9257 260.751 39.9661H258.995C258.828 39.3681 258.499 38.8958 258.01 38.549C257.531 38.2021 256.935 38.0288 256.218 38.0288C255.286 38.0288 254.534 38.3516 253.96 38.9974C253.387 39.6313 253.1 40.5341 253.1 41.7061C253.1 42.89 253.387 43.8048 253.96 44.4506C254.534 45.0964 255.286 45.4193 256.218 45.4193C256.935 45.4193 257.531 45.2518 258.01 44.917C258.487 44.5822 258.816 44.1038 258.995 43.482H260.751C260.488 44.4865 259.963 45.2937 259.174 45.9036C258.386 46.5016 257.401 46.8005 256.218 46.8005C255.286 46.8005 254.456 46.5913 253.727 46.1727C253.011 45.7541 252.449 45.1621 252.043 44.3968C251.636 43.6315 251.434 42.7346 251.434 41.7061ZM267.8 36.6296C268.541 36.6296 269.21 36.791 269.807 37.1139C270.404 37.4249 270.87 37.8972 271.204 38.531C271.551 39.1649 271.724 39.9362 271.724 40.845V46.6391H270.111V41.0782C270.111 40.0977 269.867 39.3502 269.377 38.836C268.887 38.3098 268.218 38.0467 267.37 38.0467C266.51 38.0467 265.824 38.3158 265.309 38.8539C264.808 39.3921 264.557 40.1753 264.557 41.2038V46.6391H262.926V33.3648H264.557V38.2081C264.879 37.7059 265.322 37.3172 265.883 37.0422C266.456 36.7671 267.096 36.6296 267.8 36.6296ZM278.555 41.6881C278.555 40.6836 278.758 39.8046 279.164 39.0512C279.571 38.2859 280.126 37.6939 280.83 37.2754C281.547 36.8568 282.342 36.6475 283.213 36.6475C284.073 36.6475 284.82 36.8329 285.453 37.2036C286.086 37.5743 286.558 38.0407 286.868 38.6028V36.809H288.517V46.6391H286.868V44.8094C286.546 45.3834 286.062 45.8617 285.417 46.2444C284.785 46.6151 284.044 46.8005 283.195 46.8005C282.324 46.8005 281.535 46.5853 280.83 46.1547C280.126 45.7242 279.571 45.1203 279.164 44.343C278.758 43.5656 278.555 42.6807 278.555 41.6881ZM286.868 41.7061C286.868 40.9646 286.72 40.3188 286.42 39.7688C286.122 39.2187 285.716 38.8001 285.202 38.5131C284.7 38.2141 284.145 38.0646 283.536 38.0646C282.927 38.0646 282.371 38.2081 281.869 38.4951C281.368 38.7822 280.968 39.2007 280.669 39.7508C280.371 40.3009 280.221 40.9467 280.221 41.6881C280.221 42.4415 280.371 43.0992 280.669 43.6613C280.968 44.2114 281.368 44.636 281.869 44.9349C282.371 45.222 282.927 45.3655 283.536 45.3655C284.145 45.3655 284.7 45.222 285.202 44.9349C285.716 44.636 286.122 44.2114 286.42 43.6613C286.72 43.0992 286.868 42.4476 286.868 41.7061ZM296.056 36.6296C297.251 36.6296 298.218 36.9944 298.959 37.7238C299.7 38.4413 300.07 39.4817 300.07 40.845V46.6391H298.457V41.0782C298.457 40.0977 298.213 39.3502 297.723 38.836C297.233 38.3098 296.564 38.0467 295.716 38.0467C294.856 38.0467 294.169 38.3158 293.656 38.8539C293.154 39.3921 292.903 40.1753 292.903 41.2038V46.6391H291.272V36.809H292.903V38.2081C293.225 37.7059 293.662 37.3172 294.211 37.0422C294.773 36.7671 295.387 36.6296 296.056 36.6296ZM302.124 41.6881C302.124 40.6836 302.328 39.8046 302.733 39.0512C303.139 38.2859 303.695 37.6939 304.4 37.2754C305.116 36.8568 305.916 36.6475 306.801 36.6475C307.565 36.6475 308.276 36.8269 308.933 37.1857C309.589 37.5325 310.091 37.9929 310.438 38.5669V33.3648H312.086V46.6391H310.438V44.7914C310.115 45.3774 309.638 45.8617 309.004 46.2444C308.371 46.6151 307.631 46.8005 306.783 46.8005C305.911 46.8005 305.116 46.5853 304.4 46.1547C303.695 45.7242 303.139 45.1203 302.733 44.343C302.328 43.5656 302.124 42.6807 302.124 41.6881ZM310.438 41.7061C310.438 40.9646 310.288 40.3188 309.99 39.7688C309.692 39.2187 309.285 38.8001 308.772 38.5131C308.27 38.2141 307.714 38.0646 307.105 38.0646C306.496 38.0646 305.941 38.2081 305.439 38.4951C304.937 38.7822 304.537 39.2007 304.238 39.7508C303.94 40.3009 303.791 40.9467 303.791 41.6881C303.791 42.4415 303.94 43.0992 304.238 43.6613C304.537 44.2114 304.937 44.636 305.439 44.9349C305.941 45.222 306.496 45.3655 307.105 45.3655C307.714 45.3655 308.27 45.222 308.772 44.9349C309.285 44.636 309.692 44.2114 309.99 43.6613C310.288 43.0992 310.438 42.4476 310.438 41.7061ZM323.668 36.6475C324.516 36.6475 325.256 36.8329 325.89 37.2036C326.535 37.5743 327.012 38.0407 327.323 38.6028V36.809H328.972V46.8543C328.972 47.7512 328.78 48.5465 328.398 49.2401C328.016 49.9457 327.467 50.4958 326.75 50.8904C326.045 51.285 325.221 51.4824 324.277 51.4824C322.987 51.4824 321.912 51.1774 321.052 50.5675C320.192 49.9576 319.684 49.1265 319.529 48.0741H321.142C321.321 48.6721 321.691 49.1504 322.253 49.5092C322.813 49.8799 323.489 50.0653 324.277 50.0653C325.173 50.0653 325.901 49.7843 326.463 49.2222C327.037 48.6601 327.323 47.8708 327.323 46.8543V44.7914C327.001 45.3655 326.522 45.8438 325.89 46.2265C325.256 46.6092 324.516 46.8005 323.668 46.8005C322.796 46.8005 322.002 46.5853 321.285 46.1547C320.58 45.7242 320.025 45.1203 319.619 44.343C319.212 43.5656 319.01 42.6807 319.01 41.6881C319.01 40.6836 319.212 39.8046 319.619 39.0512C320.025 38.2859 320.58 37.6939 321.285 37.2754C322.002 36.8568 322.796 36.6475 323.668 36.6475ZM327.323 41.7061C327.323 40.9646 327.174 40.3188 326.875 39.7688C326.576 39.2187 326.17 38.8001 325.657 38.5131C325.155 38.2141 324.6 38.0646 323.991 38.0646C323.381 38.0646 322.826 38.2081 322.324 38.4951C321.823 38.7822 321.422 39.2007 321.124 39.7508C320.825 40.3009 320.676 40.9467 320.676 41.6881C320.676 42.4415 320.825 43.0992 321.124 43.6613C321.422 44.2114 321.823 44.636 322.324 44.9349C322.826 45.222 323.381 45.3655 323.991 45.3655C324.6 45.3655 325.155 45.222 325.657 44.9349C326.17 44.636 326.576 44.2114 326.875 43.6613C327.174 43.0992 327.323 42.4476 327.323 41.7061ZM333.357 38.4055C333.644 37.8434 334.049 37.4069 334.575 37.096C335.113 36.785 335.764 36.6296 336.528 36.6296V38.3158H336.098C334.271 38.3158 333.357 39.3084 333.357 41.2935V46.6391H331.726V36.809H333.357V38.4055ZM342.693 46.8005C341.773 46.8005 340.937 46.5913 340.184 46.1727C339.443 45.7541 338.858 45.1621 338.428 44.3968C338.01 43.6194 337.801 42.7225 337.801 41.7061C337.801 40.7015 338.016 39.8166 338.446 39.0512C338.888 38.2739 339.486 37.6819 340.238 37.2754C340.991 36.8568 341.833 36.6475 342.764 36.6475C343.696 36.6475 344.538 36.8568 345.291 37.2754C346.043 37.6819 346.635 38.268 347.065 39.0333C347.506 39.7986 347.728 40.6896 347.728 41.7061C347.728 42.7225 347.501 43.6194 347.047 44.3968C346.605 45.1621 346.001 45.7541 345.237 46.1727C344.473 46.5913 343.624 46.8005 342.693 46.8005ZM342.693 45.3655C343.278 45.3655 343.828 45.228 344.341 44.9529C344.855 44.6778 345.267 44.2652 345.577 43.7152C345.9 43.1651 346.061 42.4954 346.061 41.7061C346.061 40.9168 345.906 40.2471 345.595 39.697C345.285 39.1469 344.879 38.7403 344.377 38.4772C343.875 38.2021 343.332 38.0646 342.747 38.0646C342.149 38.0646 341.6 38.2021 341.098 38.4772C340.608 38.7403 340.214 39.1469 339.916 39.697C339.617 40.2471 339.468 40.9168 339.468 41.7061C339.468 42.5073 339.611 43.183 339.898 43.7331C340.196 44.2832 340.59 44.6957 341.08 44.9708C341.57 45.2339 342.108 45.3655 342.693 45.3655ZM362.951 36.809L359.887 46.6391H358.203L355.838 38.836L353.473 46.6391H351.789L348.707 36.809H350.373L352.631 45.0605L355.067 36.809H356.734L359.117 45.0784L361.339 36.809H362.951ZM366.558 38.1543V43.9483C366.558 44.4267 366.66 44.7675 366.862 44.9708C367.066 45.1621 367.418 45.2578 367.92 45.2578H369.12V46.6391H367.651C366.743 46.6391 366.062 46.4298 365.608 46.0112C365.155 45.5926 364.927 44.9051 364.927 43.9483V38.1543H363.655V36.809H364.927V34.3335H366.558V36.809H369.12V38.1543H366.558ZM375.969 36.6296C376.71 36.6296 377.379 36.791 377.976 37.1139C378.573 37.4249 379.039 37.8972 379.373 38.531C379.72 39.1649 379.893 39.9362 379.893 40.845V46.6391H378.28V41.0782C378.28 40.0977 378.036 39.3502 377.546 38.836C377.057 38.3098 376.387 38.0467 375.539 38.0467C374.679 38.0467 373.993 38.3158 373.479 38.8539C372.977 39.3921 372.726 40.1753 372.726 41.2038V46.6391H371.095V33.3648H372.726V38.2081C373.048 37.7059 373.491 37.3172 374.052 37.0422C374.625 36.7671 375.265 36.6296 375.969 36.6296ZM391.615 46.8005C390.696 46.8005 389.86 46.5913 389.107 46.1727C388.367 45.7541 387.781 45.1621 387.351 44.3968C386.934 43.6194 386.724 42.7225 386.724 41.7061C386.724 40.7015 386.939 39.8166 387.369 39.0512C387.812 38.2739 388.408 37.6819 389.161 37.2754C389.913 36.8568 390.755 36.6475 391.687 36.6475C392.619 36.6475 393.461 36.8568 394.213 37.2754C394.966 37.6819 395.557 38.268 395.987 39.0333C396.43 39.7986 396.65 40.6896 396.65 41.7061C396.65 42.7225 396.424 43.6194 395.969 44.3968C395.528 45.1621 394.925 45.7541 394.16 46.1727C393.395 46.5913 392.547 46.8005 391.615 46.8005ZM391.615 45.3655C392.201 45.3655 392.75 45.228 393.264 44.9529C393.778 44.6778 394.19 44.2652 394.5 43.7152C394.823 43.1651 394.984 42.4954 394.984 41.7061C394.984 40.9168 394.829 40.2471 394.518 39.697C394.208 39.1469 393.801 38.7403 393.3 38.4772C392.798 38.2021 392.255 38.0646 391.669 38.0646C391.073 38.0646 390.522 38.2021 390.021 38.4772C389.532 38.7403 389.137 39.1469 388.838 39.697C388.54 40.2471 388.39 40.9168 388.39 41.7061C388.39 42.5073 388.534 43.183 388.82 43.7331C389.12 44.2832 389.514 44.6957 390.003 44.9708C390.493 45.2339 391.03 45.3655 391.615 45.3655ZM402.79 38.1543H400.729V46.6391H399.099V38.1543H397.826V36.809H399.099V36.1094C399.099 35.0091 399.38 34.2079 399.941 33.7057C400.514 33.1915 401.428 32.9343 402.682 32.9343V34.2976C401.965 34.2976 401.458 34.4411 401.159 34.7281C400.872 35.0032 400.729 35.4636 400.729 36.1094V36.809H402.79V38.1543ZM419.788 34.1362L415.076 46.6391H413.194L408.482 34.1362H410.22L414.144 44.917L418.068 34.1362H419.788ZM425.858 46.8005C424.938 46.8005 424.102 46.5913 423.35 46.1727C422.609 45.7541 422.024 45.1621 421.594 44.3968C421.176 43.6194 420.967 42.7225 420.967 41.7061C420.967 40.7015 421.182 39.8166 421.612 39.0512C422.054 38.2739 422.651 37.6819 423.404 37.2754C424.156 36.8568 424.998 36.6475 425.93 36.6475C426.862 36.6475 427.704 36.8568 428.456 37.2754C429.209 37.6819 429.8 38.268 430.23 39.0333C430.672 39.7986 430.893 40.6896 430.893 41.7061C430.893 42.7225 430.666 43.6194 430.212 44.3968C429.771 45.1621 429.167 45.7541 428.403 46.1727C427.638 46.5913 426.79 46.8005 425.858 46.8005ZM425.858 45.3655C426.443 45.3655 426.993 45.228 427.507 44.9529C428.02 44.6778 428.432 44.2652 428.743 43.7152C429.065 43.1651 429.227 42.4954 429.227 41.7061C429.227 40.9168 429.072 40.2471 428.761 39.697C428.45 39.1469 428.044 38.7403 427.543 38.4772C427.041 38.2021 426.497 38.0646 425.912 38.0646C425.314 38.0646 424.765 38.2021 424.264 38.4772C423.774 38.7403 423.379 39.1469 423.081 39.697C422.783 40.2471 422.633 40.9168 422.633 41.7061C422.633 42.5073 422.776 43.183 423.063 43.7331C423.361 44.2832 423.756 44.6957 424.246 44.9708C424.736 45.2339 425.273 45.3655 425.858 45.3655ZM434.667 38.4055C434.954 37.8434 435.36 37.4069 435.886 37.096C436.423 36.785 437.075 36.6296 437.839 36.6296V38.3158H437.409C435.581 38.3158 434.667 39.3084 434.667 41.2935V46.6391H433.037V36.809H434.667V38.4055ZM441.71 38.1543V43.9483C441.71 44.4267 441.811 44.7675 442.014 44.9708C442.218 45.1621 442.57 45.2578 443.072 45.2578H444.272V46.6391H442.803C441.895 46.6391 441.214 46.4298 440.76 46.0112C440.306 45.5926 440.079 44.9051 440.079 43.9483V38.1543H438.807V36.809H440.079V34.3335H441.71V36.809H444.272V38.1543H441.71ZM455.206 41.3473C455.206 41.6583 455.188 41.9871 455.152 42.3339H447.305C447.365 43.3026 447.693 44.062 448.29 44.6121C448.899 45.1502 449.634 45.4193 450.494 45.4193C451.199 45.4193 451.784 45.2578 452.25 44.9349C452.728 44.6001 453.062 44.1576 453.253 43.6075H455.009C454.747 44.5522 454.221 45.3236 453.432 45.9215C452.644 46.5075 451.665 46.8005 450.494 46.8005C449.562 46.8005 448.726 46.5913 447.985 46.1727C447.257 45.7541 446.684 45.1621 446.265 44.3968C445.848 43.6194 445.638 42.7225 445.638 41.7061C445.638 40.6896 445.842 39.7986 446.247 39.0333C446.654 38.268 447.221 37.6819 447.95 37.2754C448.69 36.8568 449.539 36.6475 450.494 36.6475C451.426 36.6475 452.25 36.8509 452.966 37.2574C453.683 37.664 454.233 38.2261 454.615 38.9436C455.009 39.6492 455.206 40.4504 455.206 41.3473ZM453.522 41.0065C453.522 40.3847 453.385 39.8524 453.11 39.41C452.836 38.9555 452.459 38.6147 451.981 38.3875C451.515 38.1483 450.996 38.0288 450.422 38.0288C449.598 38.0288 448.894 38.2918 448.308 38.818C447.735 39.3443 447.407 40.0737 447.322 41.0065H453.522ZM458.989 33.3648V46.6391H457.359V33.3648H458.989Z" fill="black"/>
</g>
<defs>
<filter id="filter0_d_214_2" x="-2.21553" y="-1.77412" width="503.431" height="91.3732" filterUnits="userSpaceOnUse" color-interpolation-filters="sRGB">
<feFlood flood-opacity="0" result="BackgroundImageFix"/>
<feColorMatrix in="SourceAlpha" type="matrix" values="0 0 0 0 0 0 0 0 0 0 0 0 0 0 0 0 0 0 127 0" result="hardAlpha"/>
<feOffset dy="4"/>
<feGaussianBlur stdDeviation="13.65"/>
<feComposite in2="hardAlpha" operator="out"/>
<feColorMatrix type="matrix" values="0 0 0 0 0 0 0 0 0 0 0 0 0 0 0 0 0 0 0.25 0"/>
<feBlend mode="normal" in2="BackgroundImageFix" result="effect1_dropShadow_214_2"/>
<feBlend mode="normal" in="SourceGraphic" in2="effect1_dropShadow_214_2" result="shape"/>
</filter>
<clipPath id="clip0_214_2">
<rect width="499" height="87" fill="white"/>
</clipPath>
</defs>
</svg>
