<svg width="543" height="83" viewBox="0 0 543 83" fill="none" xmlns="http://www.w3.org/2000/svg">
<g filter="url(#filter0_d_107_25)">
<rect x="21" y="17" width="501" height="41" rx="8" fill="white"/>
</g>
<path d="M43.0631 35.14C43.0631 36.3 42.6631 37.2667 41.8631 38.04C41.0765 38.8 39.8698 39.18 38.2431 39.18H35.5631V45H33.7431V31.06H38.2431C39.8165 31.06 41.0098 31.44 41.8231 32.2C42.6498 32.96 43.0631 33.94 43.0631 35.14ZM38.2431 37.68C39.2565 37.68 40.0031 37.46 40.4831 37.02C40.9631 36.58 41.2031 35.9533 41.2031 35.14C41.2031 33.42 40.2165 32.56 38.2431 32.56H35.5631V37.68H38.2431ZM47.1452 35.82C47.4652 35.1933 47.9185 34.7067 48.5052 34.36C49.1052 34.0133 49.8318 33.84 50.6852 33.84V35.72H50.2052C48.1652 35.72 47.1452 36.8267 47.1452 39.04V45H45.3252V34.04H47.1452V35.82ZM62.7861 39.1C62.7861 39.4467 62.7661 39.8133 62.7261 40.2H53.9661C54.0328 41.28 54.3994 42.1267 55.0661 42.74C55.7461 43.34 56.5661 43.64 57.5261 43.64C58.3128 43.64 58.9661 43.46 59.4861 43.1C60.0194 42.7267 60.3928 42.2333 60.6061 41.62H62.5661C62.2728 42.6733 61.6861 43.5333 60.8061 44.2C59.9261 44.8533 58.8328 45.18 57.5261 45.18C56.4861 45.18 55.5528 44.9467 54.7261 44.48C53.9128 44.0133 53.2728 43.3533 52.8061 42.5C52.3394 41.6333 52.1061 40.6333 52.1061 39.5C52.1061 38.3667 52.3328 37.3733 52.7861 36.52C53.2394 35.6667 53.8728 35.0133 54.6861 34.56C55.5128 34.0933 56.4594 33.86 57.5261 33.86C58.5661 33.86 59.4861 34.0867 60.2861 34.54C61.0861 34.9933 61.6994 35.62 62.1261 36.42C62.5661 37.2067 62.7861 38.1 62.7861 39.1ZM60.9061 38.72C60.9061 38.0267 60.7528 37.4333 60.4461 36.94C60.1394 36.4333 59.7194 36.0533 59.1861 35.8C58.6661 35.5333 58.0861 35.4 57.4461 35.4C56.5261 35.4 55.7394 35.6933 55.0861 36.28C54.4461 36.8667 54.0794 37.68 53.9861 38.72H60.9061ZM69.0684 45.18C68.2284 45.18 67.4751 45.04 66.8084 44.76C66.1418 44.4667 65.6151 44.0667 65.2284 43.56C64.8418 43.04 64.6284 42.4467 64.5884 41.78H66.4684C66.5218 42.3267 66.7751 42.7733 67.2284 43.12C67.6951 43.4667 68.3018 43.64 69.0484 43.64C69.7418 43.64 70.2884 43.4867 70.6884 43.18C71.0884 42.8733 71.2884 42.4867 71.2884 42.02C71.2884 41.54 71.0751 41.1867 70.6484 40.96C70.2218 40.72 69.5618 40.4867 68.6684 40.26C67.8551 40.0467 67.1884 39.8333 66.6684 39.62C66.1618 39.3933 65.7218 39.0667 65.3484 38.64C64.9884 38.2 64.8084 37.6267 64.8084 36.92C64.8084 36.36 64.9751 35.8467 65.3084 35.38C65.6418 34.9133 66.1151 34.5467 66.7284 34.28C67.3418 34 68.0418 33.86 68.8284 33.86C70.0418 33.86 71.0218 34.1667 71.7684 34.78C72.5151 35.3933 72.9151 36.2333 72.9684 37.3H71.1484C71.1084 36.7267 70.8751 36.2667 70.4484 35.92C70.0351 35.5733 69.4751 35.4 68.7684 35.4C68.1151 35.4 67.5951 35.54 67.2084 35.82C66.8218 36.1 66.6284 36.4667 66.6284 36.92C66.6284 37.28 66.7418 37.58 66.9684 37.82C67.2084 38.0467 67.5018 38.2333 67.8484 38.38C68.2084 38.5133 68.7018 38.6667 69.3284 38.84C70.1151 39.0533 70.7551 39.2667 71.2484 39.48C71.7418 39.68 72.1618 39.9867 72.5084 40.4C72.8684 40.8133 73.0551 41.3533 73.0684 42.02C73.0684 42.62 72.9018 43.16 72.5684 43.64C72.2351 44.12 71.7618 44.5 71.1484 44.78C70.5484 45.0467 69.8551 45.18 69.0684 45.18ZM79.5177 45.18C78.6777 45.18 77.9243 45.04 77.2577 44.76C76.591 44.4667 76.0643 44.0667 75.6777 43.56C75.291 43.04 75.0777 42.4467 75.0377 41.78H76.9177C76.971 42.3267 77.2243 42.7733 77.6777 43.12C78.1443 43.4667 78.751 43.64 79.4977 43.64C80.191 43.64 80.7377 43.4867 81.1377 43.18C81.5377 42.8733 81.7377 42.4867 81.7377 42.02C81.7377 41.54 81.5243 41.1867 81.0977 40.96C80.671 40.72 80.011 40.4867 79.1177 40.26C78.3043 40.0467 77.6377 39.8333 77.1177 39.62C76.611 39.3933 76.171 39.0667 75.7977 38.64C75.4377 38.2 75.2577 37.6267 75.2577 36.92C75.2577 36.36 75.4243 35.8467 75.7577 35.38C76.091 34.9133 76.5643 34.5467 77.1777 34.28C77.791 34 78.491 33.86 79.2777 33.86C80.491 33.86 81.471 34.1667 82.2177 34.78C82.9643 35.3933 83.3643 36.2333 83.4177 37.3H81.5977C81.5577 36.7267 81.3243 36.2667 80.8977 35.92C80.4843 35.5733 79.9243 35.4 79.2177 35.4C78.5643 35.4 78.0443 35.54 77.6577 35.82C77.271 36.1 77.0777 36.4667 77.0777 36.92C77.0777 37.28 77.191 37.58 77.4177 37.82C77.6577 38.0467 77.951 38.2333 78.2977 38.38C78.6577 38.5133 79.151 38.6667 79.7777 38.84C80.5643 39.0533 81.2043 39.2667 81.6977 39.48C82.191 39.68 82.611 39.9867 82.9577 40.4C83.3177 40.8133 83.5043 41.3533 83.5177 42.02C83.5177 42.62 83.351 43.16 83.0177 43.64C82.6843 44.12 82.211 44.5 81.5977 44.78C80.9977 45.0467 80.3043 45.18 79.5177 45.18ZM93.6389 35.54V42C93.6389 42.5333 93.7522 42.9133 93.9789 43.14C94.2056 43.3533 94.5989 43.46 95.1589 43.46H96.4989V45H94.8589C93.8456 45 93.0856 44.7667 92.5789 44.3C92.0722 43.8333 91.8189 43.0667 91.8189 42V35.54H90.3989V34.04H91.8189V31.28H93.6389V34.04H96.4989V35.54H93.6389ZM104.144 33.84C104.971 33.84 105.717 34.02 106.384 34.38C107.051 34.7267 107.571 35.2533 107.944 35.96C108.331 36.6667 108.524 37.5267 108.524 38.54V45H106.724V38.8C106.724 37.7067 106.451 36.8733 105.904 36.3C105.357 35.7133 104.611 35.42 103.664 35.42C102.704 35.42 101.937 35.72 101.364 36.32C100.804 36.92 100.524 37.7933 100.524 38.94V45H98.7041V30.2H100.524V35.6C100.884 35.04 101.377 34.6067 102.004 34.3C102.644 33.9933 103.357 33.84 104.144 33.84ZM121.497 39.1C121.497 39.4467 121.477 39.8133 121.437 40.2H112.677C112.744 41.28 113.11 42.1267 113.777 42.74C114.457 43.34 115.277 43.64 116.237 43.64C117.024 43.64 117.677 43.46 118.197 43.1C118.73 42.7267 119.104 42.2333 119.317 41.62H121.277C120.984 42.6733 120.397 43.5333 119.517 44.2C118.637 44.8533 117.544 45.18 116.237 45.18C115.197 45.18 114.264 44.9467 113.437 44.48C112.624 44.0133 111.984 43.3533 111.517 42.5C111.05 41.6333 110.817 40.6333 110.817 39.5C110.817 38.3667 111.044 37.3733 111.497 36.52C111.95 35.6667 112.584 35.0133 113.397 34.56C114.224 34.0933 115.17 33.86 116.237 33.86C117.277 33.86 118.197 34.0867 118.997 34.54C119.797 34.9933 120.41 35.62 120.837 36.42C121.277 37.2067 121.497 38.1 121.497 39.1ZM119.617 38.72C119.617 38.0267 119.464 37.4333 119.157 36.94C118.85 36.4333 118.43 36.0533 117.897 35.8C117.377 35.5333 116.797 35.4 116.157 35.4C115.237 35.4 114.45 35.6933 113.797 36.28C113.157 36.8667 112.79 37.68 112.697 38.72H119.617ZM131.051 30.2V45H129.231V30.2H131.051ZM133.473 39.48C133.473 38.36 133.7 37.38 134.153 36.54C134.607 35.6867 135.227 35.0267 136.013 34.56C136.813 34.0933 137.7 33.86 138.673 33.86C139.633 33.86 140.467 34.0667 141.173 34.48C141.88 34.8933 142.407 35.4133 142.753 36.04V34.04H144.593V45H142.753V42.96C142.393 43.6 141.853 44.1333 141.133 44.56C140.427 44.9733 139.6 45.18 138.653 45.18C137.68 45.18 136.8 44.94 136.013 44.46C135.227 43.98 134.607 43.3067 134.153 42.44C133.7 41.5733 133.473 40.5867 133.473 39.48ZM142.753 39.5C142.753 38.6733 142.587 37.9533 142.253 37.34C141.92 36.7267 141.467 36.26 140.893 35.94C140.333 35.6067 139.713 35.44 139.033 35.44C138.353 35.44 137.733 35.6 137.173 35.92C136.613 36.24 136.167 36.7067 135.833 37.32C135.5 37.9333 135.333 38.6533 135.333 39.48C135.333 40.32 135.5 41.0533 135.833 41.68C136.167 42.2933 136.613 42.7667 137.173 43.1C137.733 43.42 138.353 43.58 139.033 43.58C139.713 43.58 140.333 43.42 140.893 43.1C141.467 42.7667 141.92 42.2933 142.253 41.68C142.587 41.0533 142.753 40.3267 142.753 39.5ZM149.489 36.08C149.862 35.4267 150.409 34.8933 151.129 34.48C151.849 34.0667 152.669 33.86 153.589 33.86C154.576 33.86 155.462 34.0933 156.249 34.56C157.036 35.0267 157.656 35.6867 158.109 36.54C158.562 37.38 158.789 38.36 158.789 39.48C158.789 40.5867 158.562 41.5733 158.109 42.44C157.656 43.3067 157.029 43.98 156.229 44.46C155.442 44.94 154.562 45.18 153.589 45.18C152.642 45.18 151.809 44.9733 151.089 44.56C150.382 44.1467 149.849 43.62 149.489 42.98V45H147.669V30.2H149.489V36.08ZM156.929 39.48C156.929 38.6533 156.762 37.9333 156.429 37.32C156.096 36.7067 155.642 36.24 155.069 35.92C154.509 35.6 153.889 35.44 153.209 35.44C152.542 35.44 151.922 35.6067 151.349 35.94C150.789 36.26 150.336 36.7333 149.989 37.36C149.656 37.9733 149.489 38.6867 149.489 39.5C149.489 40.3267 149.656 41.0533 149.989 41.68C150.336 42.2933 150.789 42.7667 151.349 43.1C151.922 43.42 152.542 43.58 153.209 43.58C153.889 43.58 154.509 43.42 155.069 43.1C155.642 42.7667 156.096 42.2933 156.429 41.68C156.762 41.0533 156.929 40.32 156.929 39.48ZM171.185 39.1C171.185 39.4467 171.165 39.8133 171.125 40.2H162.365C162.431 41.28 162.798 42.1267 163.465 42.74C164.145 43.34 164.965 43.64 165.925 43.64C166.711 43.64 167.365 43.46 167.885 43.1C168.418 42.7267 168.791 42.2333 169.005 41.62H170.965C170.671 42.6733 170.085 43.5333 169.205 44.2C168.325 44.8533 167.231 45.18 165.925 45.18C164.885 45.18 163.951 44.9467 163.125 44.48C162.311 44.0133 161.671 43.3533 161.205 42.5C160.738 41.6333 160.505 40.6333 160.505 39.5C160.505 38.3667 160.731 37.3733 161.185 36.52C161.638 35.6667 162.271 35.0133 163.085 34.56C163.911 34.0933 164.858 33.86 165.925 33.86C166.965 33.86 167.885 34.0867 168.685 34.54C169.485 34.9933 170.098 35.62 170.525 36.42C170.965 37.2067 171.185 38.1 171.185 39.1ZM169.305 38.72C169.305 38.0267 169.151 37.4333 168.845 36.94C168.538 36.4333 168.118 36.0533 167.585 35.8C167.065 35.5333 166.485 35.4 165.845 35.4C164.925 35.4 164.138 35.6933 163.485 36.28C162.845 36.8667 162.478 37.68 162.385 38.72H169.305ZM175.407 30.2V45H173.587V30.2H175.407ZM186.061 35.54V42C186.061 42.5333 186.174 42.9133 186.401 43.14C186.627 43.3533 187.021 43.46 187.581 43.46H188.921V45H187.281C186.267 45 185.507 44.7667 185.001 44.3C184.494 43.8333 184.241 43.0667 184.241 42V35.54H182.821V34.04H184.241V31.28H186.061V34.04H188.921V35.54H186.061ZM195.906 45.18C194.879 45.18 193.946 44.9467 193.106 44.48C192.279 44.0133 191.626 43.3533 191.146 42.5C190.679 41.6333 190.446 40.6333 190.446 39.5C190.446 38.38 190.686 37.3933 191.166 36.54C191.659 35.6733 192.326 35.0133 193.166 34.56C194.006 34.0933 194.946 33.86 195.986 33.86C197.026 33.86 197.966 34.0933 198.806 34.56C199.646 35.0133 200.306 35.6667 200.786 36.52C201.279 37.3733 201.526 38.3667 201.526 39.5C201.526 40.6333 201.273 41.6333 200.766 42.5C200.273 43.3533 199.599 44.0133 198.746 44.48C197.893 44.9467 196.946 45.18 195.906 45.18ZM195.906 43.58C196.559 43.58 197.173 43.4267 197.746 43.12C198.319 42.8133 198.779 42.3533 199.126 41.74C199.486 41.1267 199.666 40.38 199.666 39.5C199.666 38.62 199.493 37.8733 199.146 37.26C198.799 36.6467 198.346 36.1933 197.786 35.9C197.226 35.5933 196.619 35.44 195.966 35.44C195.299 35.44 194.686 35.5933 194.126 35.9C193.579 36.1933 193.139 36.6467 192.806 37.26C192.473 37.8733 192.306 38.62 192.306 39.5C192.306 40.3933 192.466 41.1467 192.786 41.76C193.119 42.3733 193.559 42.8333 194.106 43.14C194.653 43.4333 195.253 43.58 195.906 43.58ZM213.131 45.18C212.291 45.18 211.538 45.04 210.871 44.76C210.204 44.4667 209.678 44.0667 209.291 43.56C208.904 43.04 208.691 42.4467 208.651 41.78H210.531C210.584 42.3267 210.838 42.7733 211.291 43.12C211.758 43.4667 212.364 43.64 213.111 43.64C213.804 43.64 214.351 43.4867 214.751 43.18C215.151 42.8733 215.351 42.4867 215.351 42.02C215.351 41.54 215.138 41.1867 214.711 40.96C214.284 40.72 213.624 40.4867 212.731 40.26C211.918 40.0467 211.251 39.8333 210.731 39.62C210.224 39.3933 209.784 39.0667 209.411 38.64C209.051 38.2 208.871 37.6267 208.871 36.92C208.871 36.36 209.038 35.8467 209.371 35.38C209.704 34.9133 210.178 34.5467 210.791 34.28C211.404 34 212.104 33.86 212.891 33.86C214.104 33.86 215.084 34.1667 215.831 34.78C216.578 35.3933 216.978 36.2333 217.031 37.3H215.211C215.171 36.7267 214.938 36.2667 214.511 35.92C214.098 35.5733 213.538 35.4 212.831 35.4C212.178 35.4 211.658 35.54 211.271 35.82C210.884 36.1 210.691 36.4667 210.691 36.92C210.691 37.28 210.804 37.58 211.031 37.82C211.271 38.0467 211.564 38.2333 211.911 38.38C212.271 38.5133 212.764 38.6667 213.391 38.84C214.178 39.0533 214.818 39.2667 215.311 39.48C215.804 39.68 216.224 39.9867 216.571 40.4C216.931 40.8133 217.118 41.3533 217.131 42.02C217.131 42.62 216.964 43.16 216.631 43.64C216.298 44.12 215.824 44.5 215.211 44.78C214.611 45.0467 213.918 45.18 213.131 45.18ZM229.7 39.1C229.7 39.4467 229.68 39.8133 229.64 40.2H220.88C220.947 41.28 221.313 42.1267 221.98 42.74C222.66 43.34 223.48 43.64 224.44 43.64C225.227 43.64 225.88 43.46 226.4 43.1C226.933 42.7267 227.307 42.2333 227.52 41.62H229.48C229.187 42.6733 228.6 43.5333 227.72 44.2C226.84 44.8533 225.747 45.18 224.44 45.18C223.4 45.18 222.467 44.9467 221.64 44.48C220.827 44.0133 220.187 43.3533 219.72 42.5C219.253 41.6333 219.02 40.6333 219.02 39.5C219.02 38.3667 219.247 37.3733 219.7 36.52C220.153 35.6667 220.787 35.0133 221.6 34.56C222.427 34.0933 223.373 33.86 224.44 33.86C225.48 33.86 226.4 34.0867 227.2 34.54C228 34.9933 228.613 35.62 229.04 36.42C229.48 37.2067 229.7 38.1 229.7 39.1ZM227.82 38.72C227.82 38.0267 227.667 37.4333 227.36 36.94C227.053 36.4333 226.633 36.0533 226.1 35.8C225.58 35.5333 225 35.4 224.36 35.4C223.44 35.4 222.653 35.6933 222 36.28C221.36 36.8667 220.993 37.68 220.9 38.72H227.82ZM242.103 39.1C242.103 39.4467 242.083 39.8133 242.043 40.2H233.283C233.349 41.28 233.716 42.1267 234.383 42.74C235.063 43.34 235.883 43.64 236.843 43.64C237.629 43.64 238.283 43.46 238.803 43.1C239.336 42.7267 239.709 42.2333 239.923 41.62H241.883C241.589 42.6733 241.003 43.5333 240.123 44.2C239.243 44.8533 238.149 45.18 236.843 45.18C235.803 45.18 234.869 44.9467 234.043 44.48C233.229 44.0133 232.589 43.3533 232.123 42.5C231.656 41.6333 231.423 40.6333 231.423 39.5C231.423 38.3667 231.649 37.3733 232.103 36.52C232.556 35.6667 233.189 35.0133 234.003 34.56C234.829 34.0933 235.776 33.86 236.843 33.86C237.883 33.86 238.803 34.0867 239.603 34.54C240.403 34.9933 241.016 35.62 241.443 36.42C241.883 37.2067 242.103 38.1 242.103 39.1ZM240.223 38.72C240.223 38.0267 240.069 37.4333 239.763 36.94C239.456 36.4333 239.036 36.0533 238.503 35.8C237.983 35.5333 237.403 35.4 236.763 35.4C235.843 35.4 235.056 35.6933 234.403 36.28C233.763 36.8667 233.396 37.68 233.303 38.72H240.223ZM253.717 45.18C252.877 45.18 252.124 45.04 251.457 44.76C250.79 44.4667 250.264 44.0667 249.877 43.56C249.49 43.04 249.277 42.4467 249.237 41.78H251.117C251.17 42.3267 251.424 42.7733 251.877 43.12C252.344 43.4667 252.95 43.64 253.697 43.64C254.39 43.64 254.937 43.4867 255.337 43.18C255.737 42.8733 255.937 42.4867 255.937 42.02C255.937 41.54 255.724 41.1867 255.297 40.96C254.87 40.72 254.21 40.4867 253.317 40.26C252.504 40.0467 251.837 39.8333 251.317 39.62C250.81 39.3933 250.37 39.0667 249.997 38.64C249.637 38.2 249.457 37.6267 249.457 36.92C249.457 36.36 249.624 35.8467 249.957 35.38C250.29 34.9133 250.764 34.5467 251.377 34.28C251.99 34 252.69 33.86 253.477 33.86C254.69 33.86 255.67 34.1667 256.417 34.78C257.164 35.3933 257.564 36.2333 257.617 37.3H255.797C255.757 36.7267 255.524 36.2667 255.097 35.92C254.684 35.5733 254.124 35.4 253.417 35.4C252.764 35.4 252.244 35.54 251.857 35.82C251.47 36.1 251.277 36.4667 251.277 36.92C251.277 37.28 251.39 37.58 251.617 37.82C251.857 38.0467 252.15 38.2333 252.497 38.38C252.857 38.5133 253.35 38.6667 253.977 38.84C254.764 39.0533 255.404 39.2667 255.897 39.48C256.39 39.68 256.81 39.9867 257.157 40.4C257.517 40.8133 257.704 41.3533 257.717 42.02C257.717 42.62 257.55 43.16 257.217 43.64C256.884 44.12 256.41 44.5 255.797 44.78C255.197 45.0467 254.504 45.18 253.717 45.18ZM265.066 45.18C264.039 45.18 263.106 44.9467 262.266 44.48C261.439 44.0133 260.786 43.3533 260.306 42.5C259.839 41.6333 259.606 40.6333 259.606 39.5C259.606 38.38 259.846 37.3933 260.326 36.54C260.819 35.6733 261.486 35.0133 262.326 34.56C263.166 34.0933 264.106 33.86 265.146 33.86C266.186 33.86 267.126 34.0933 267.966 34.56C268.806 35.0133 269.466 35.6667 269.946 36.52C270.439 37.3733 270.686 38.3667 270.686 39.5C270.686 40.6333 270.433 41.6333 269.926 42.5C269.433 43.3533 268.759 44.0133 267.906 44.48C267.053 44.9467 266.106 45.18 265.066 45.18ZM265.066 43.58C265.719 43.58 266.333 43.4267 266.906 43.12C267.479 42.8133 267.939 42.3533 268.286 41.74C268.646 41.1267 268.826 40.38 268.826 39.5C268.826 38.62 268.653 37.8733 268.306 37.26C267.959 36.6467 267.506 36.1933 266.946 35.9C266.386 35.5933 265.779 35.44 265.126 35.44C264.459 35.44 263.846 35.5933 263.286 35.9C262.739 36.1933 262.299 36.6467 261.966 37.26C261.633 37.8733 261.466 38.62 261.466 39.5C261.466 40.3933 261.626 41.1467 261.946 41.76C262.279 42.3733 262.719 42.8333 263.266 43.14C263.813 43.4333 264.413 43.58 265.066 43.58ZM286.259 33.84C287.112 33.84 287.872 34.02 288.539 34.38C289.206 34.7267 289.732 35.2533 290.119 35.96C290.506 36.6667 290.699 37.5267 290.699 38.54V45H288.899V38.8C288.899 37.7067 288.626 36.8733 288.079 36.3C287.546 35.7133 286.819 35.42 285.899 35.42C284.952 35.42 284.199 35.7267 283.639 36.34C283.079 36.94 282.799 37.8133 282.799 38.96V45H280.999V38.8C280.999 37.7067 280.726 36.8733 280.179 36.3C279.646 35.7133 278.919 35.42 277.999 35.42C277.052 35.42 276.299 35.7267 275.739 36.34C275.179 36.94 274.899 37.8133 274.899 38.96V45H273.079V34.04H274.899V35.62C275.259 35.0467 275.739 34.6067 276.339 34.3C276.952 33.9933 277.626 33.84 278.359 33.84C279.279 33.84 280.092 34.0467 280.799 34.46C281.506 34.8733 282.032 35.48 282.379 36.28C282.686 35.5067 283.192 34.9067 283.899 34.48C284.606 34.0533 285.392 33.84 286.259 33.84ZM303.685 39.1C303.685 39.4467 303.665 39.8133 303.625 40.2H294.865C294.931 41.28 295.298 42.1267 295.965 42.74C296.645 43.34 297.465 43.64 298.425 43.64C299.211 43.64 299.865 43.46 300.385 43.1C300.918 42.7267 301.291 42.2333 301.505 41.62H303.465C303.171 42.6733 302.585 43.5333 301.705 44.2C300.825 44.8533 299.731 45.18 298.425 45.18C297.385 45.18 296.451 44.9467 295.625 44.48C294.811 44.0133 294.171 43.3533 293.705 42.5C293.238 41.6333 293.005 40.6333 293.005 39.5C293.005 38.3667 293.231 37.3733 293.685 36.52C294.138 35.6667 294.771 35.0133 295.585 34.56C296.411 34.0933 297.358 33.86 298.425 33.86C299.465 33.86 300.385 34.0867 301.185 34.54C301.985 34.9933 302.598 35.62 303.025 36.42C303.465 37.2067 303.685 38.1 303.685 39.1ZM301.805 38.72C301.805 38.0267 301.651 37.4333 301.345 36.94C301.038 36.4333 300.618 36.0533 300.085 35.8C299.565 35.5333 298.985 35.4 298.345 35.4C297.425 35.4 296.638 35.6933 295.985 36.28C295.345 36.8667 294.978 37.68 294.885 38.72H301.805ZM316.199 45.18C315.172 45.18 314.239 44.9467 313.399 44.48C312.572 44.0133 311.919 43.3533 311.439 42.5C310.972 41.6333 310.739 40.6333 310.739 39.5C310.739 38.38 310.979 37.3933 311.459 36.54C311.952 35.6733 312.619 35.0133 313.459 34.56C314.299 34.0933 315.239 33.86 316.279 33.86C317.319 33.86 318.259 34.0933 319.099 34.56C319.939 35.0133 320.599 35.6667 321.079 36.52C321.572 37.3733 321.819 38.3667 321.819 39.5C321.819 40.6333 321.566 41.6333 321.059 42.5C320.566 43.3533 319.892 44.0133 319.039 44.48C318.186 44.9467 317.239 45.18 316.199 45.18ZM316.199 43.58C316.852 43.58 317.466 43.4267 318.039 43.12C318.612 42.8133 319.072 42.3533 319.419 41.74C319.779 41.1267 319.959 40.38 319.959 39.5C319.959 38.62 319.786 37.8733 319.439 37.26C319.092 36.6467 318.639 36.1933 318.079 35.9C317.519 35.5933 316.912 35.44 316.259 35.44C315.592 35.44 314.979 35.5933 314.419 35.9C313.872 36.1933 313.432 36.6467 313.099 37.26C312.766 37.8733 312.599 38.62 312.599 39.5C312.599 40.3933 312.759 41.1467 313.079 41.76C313.412 42.3733 313.852 42.8333 314.399 43.14C314.946 43.4333 315.546 43.58 316.199 43.58ZM328.672 35.54H326.372V45H324.552V35.54H323.132V34.04H324.552V33.26C324.552 32.0333 324.865 31.14 325.492 30.58C326.132 30.0067 327.152 29.72 328.552 29.72V31.24C327.752 31.24 327.185 31.4 326.852 31.72C326.532 32.0267 326.372 32.54 326.372 33.26V34.04H328.672V35.54ZM340.906 45.18C339.879 45.18 338.946 44.9467 338.106 44.48C337.279 44.0133 336.626 43.3533 336.146 42.5C335.679 41.6333 335.446 40.6333 335.446 39.5C335.446 38.38 335.686 37.3933 336.166 36.54C336.659 35.6733 337.326 35.0133 338.166 34.56C339.006 34.0933 339.946 33.86 340.986 33.86C342.026 33.86 342.966 34.0933 343.806 34.56C344.646 35.0133 345.306 35.6667 345.786 36.52C346.279 37.3733 346.526 38.3667 346.526 39.5C346.526 40.6333 346.273 41.6333 345.766 42.5C345.273 43.3533 344.599 44.0133 343.746 44.48C342.893 44.9467 341.946 45.18 340.906 45.18ZM340.906 43.58C341.559 43.58 342.173 43.4267 342.746 43.12C343.319 42.8133 343.779 42.3533 344.126 41.74C344.486 41.1267 344.666 40.38 344.666 39.5C344.666 38.62 344.493 37.8733 344.146 37.26C343.799 36.6467 343.346 36.1933 342.786 35.9C342.226 35.5933 341.619 35.44 340.966 35.44C340.299 35.44 339.686 35.5933 339.126 35.9C338.579 36.1933 338.139 36.6467 337.806 37.26C337.473 37.8733 337.306 38.62 337.306 39.5C337.306 40.3933 337.466 41.1467 337.786 41.76C338.119 42.3733 338.559 42.8333 339.106 43.14C339.653 43.4333 340.253 43.58 340.906 43.58ZM358.639 34.04V45H356.819V43.38C356.472 43.94 355.986 44.38 355.359 44.7C354.746 45.0067 354.066 45.16 353.319 45.16C352.466 45.16 351.699 44.9867 351.019 44.64C350.339 44.28 349.799 43.7467 349.399 43.04C349.012 42.3333 348.819 41.4733 348.819 40.46V34.04H350.619V40.22C350.619 41.3 350.892 42.1333 351.439 42.72C351.986 43.2933 352.732 43.58 353.679 43.58C354.652 43.58 355.419 43.28 355.979 42.68C356.539 42.08 356.819 41.2067 356.819 40.06V34.04H358.639ZM363.532 35.82C363.852 35.1933 364.305 34.7067 364.892 34.36C365.492 34.0133 366.219 33.84 367.072 33.84V35.72H366.592C364.552 35.72 363.532 36.8267 363.532 39.04V45H361.712V34.04H363.532V35.82ZM376.325 36.06C376.685 35.4333 377.218 34.9133 377.925 34.5C378.645 34.0733 379.478 33.86 380.425 33.86C381.398 33.86 382.278 34.0933 383.065 34.56C383.865 35.0267 384.492 35.6867 384.945 36.54C385.398 37.38 385.625 38.36 385.625 39.48C385.625 40.5867 385.398 41.5733 384.945 42.44C384.492 43.3067 383.865 43.98 383.065 44.46C382.278 44.94 381.398 45.18 380.425 45.18C379.492 45.18 378.665 44.9733 377.945 44.56C377.238 44.1333 376.698 43.6067 376.325 42.98V50.2H374.505V34.04H376.325V36.06ZM383.765 39.48C383.765 38.6533 383.598 37.9333 383.265 37.32C382.932 36.7067 382.478 36.24 381.905 35.92C381.345 35.6 380.725 35.44 380.045 35.44C379.378 35.44 378.758 35.6067 378.185 35.94C377.625 36.26 377.172 36.7333 376.825 37.36C376.492 37.9733 376.325 38.6867 376.325 39.5C376.325 40.3267 376.492 41.0533 376.825 41.68C377.172 42.2933 377.625 42.7667 378.185 43.1C378.758 43.42 379.378 43.58 380.045 43.58C380.725 43.58 381.345 43.42 381.905 43.1C382.478 42.7667 382.932 42.2933 383.265 41.68C383.598 41.0533 383.765 40.32 383.765 39.48ZM389.84 35.82C390.16 35.1933 390.614 34.7067 391.2 34.36C391.8 34.0133 392.527 33.84 393.38 33.84V35.72H392.9C390.86 35.72 389.84 36.8267 389.84 39.04V45H388.02V34.04H389.84V35.82ZM405.481 39.1C405.481 39.4467 405.461 39.8133 405.421 40.2H396.661C396.728 41.28 397.095 42.1267 397.761 42.74C398.441 43.34 399.261 43.64 400.221 43.64C401.008 43.64 401.661 43.46 402.181 43.1C402.715 42.7267 403.088 42.2333 403.301 41.62H405.261C404.968 42.6733 404.381 43.5333 403.501 44.2C402.621 44.8533 401.528 45.18 400.221 45.18C399.181 45.18 398.248 44.9467 397.421 44.48C396.608 44.0133 395.968 43.3533 395.501 42.5C395.035 41.6333 394.801 40.6333 394.801 39.5C394.801 38.3667 395.028 37.3733 395.481 36.52C395.935 35.6667 396.568 35.0133 397.381 34.56C398.208 34.0933 399.155 33.86 400.221 33.86C401.261 33.86 402.181 34.0867 402.981 34.54C403.781 34.9933 404.395 35.62 404.821 36.42C405.261 37.2067 405.481 38.1 405.481 39.1ZM403.601 38.72C403.601 38.0267 403.448 37.4333 403.141 36.94C402.835 36.4333 402.415 36.0533 401.881 35.8C401.361 35.5333 400.781 35.4 400.141 35.4C399.221 35.4 398.435 35.6933 397.781 36.28C397.141 36.8667 396.775 37.68 396.681 38.72H403.601ZM411.964 43.32L415.364 34.04H417.304L413.004 45H410.884L406.584 34.04H408.544L411.964 43.32ZM420.035 32.26C419.688 32.26 419.395 32.14 419.155 31.9C418.915 31.66 418.795 31.3667 418.795 31.02C418.795 30.6733 418.915 30.38 419.155 30.14C419.395 29.9 419.688 29.78 420.035 29.78C420.368 29.78 420.648 29.9 420.875 30.14C421.115 30.38 421.235 30.6733 421.235 31.02C421.235 31.3667 421.115 31.66 420.875 31.9C420.648 32.14 420.368 32.26 420.035 32.26ZM420.915 34.04V45H419.095V34.04H420.915ZM428.797 45.18C427.77 45.18 426.837 44.9467 425.997 44.48C425.17 44.0133 424.517 43.3533 424.037 42.5C423.57 41.6333 423.337 40.6333 423.337 39.5C423.337 38.38 423.577 37.3933 424.057 36.54C424.55 35.6733 425.217 35.0133 426.057 34.56C426.897 34.0933 427.837 33.86 428.877 33.86C429.917 33.86 430.857 34.0933 431.697 34.56C432.537 35.0133 433.197 35.6667 433.677 36.52C434.17 37.3733 434.417 38.3667 434.417 39.5C434.417 40.6333 434.163 41.6333 433.657 42.5C433.163 43.3533 432.49 44.0133 431.637 44.48C430.783 44.9467 429.837 45.18 428.797 45.18ZM428.797 43.58C429.45 43.58 430.063 43.4267 430.637 43.12C431.21 42.8133 431.67 42.3533 432.017 41.74C432.377 41.1267 432.557 40.38 432.557 39.5C432.557 38.62 432.383 37.8733 432.037 37.26C431.69 36.6467 431.237 36.1933 430.677 35.9C430.117 35.5933 429.51 35.44 428.857 35.44C428.19 35.44 427.577 35.5933 427.017 35.9C426.47 36.1933 426.03 36.6467 425.697 37.26C425.363 37.8733 425.197 38.62 425.197 39.5C425.197 40.3933 425.357 41.1467 425.677 41.76C426.01 42.3733 426.45 42.8333 426.997 43.14C427.543 43.4333 428.143 43.58 428.797 43.58ZM446.53 34.04V45H444.71V43.38C444.363 43.94 443.876 44.38 443.25 44.7C442.636 45.0067 441.956 45.16 441.21 45.16C440.356 45.16 439.59 44.9867 438.91 44.64C438.23 44.28 437.69 43.7467 437.29 43.04C436.903 42.3333 436.71 41.4733 436.71 40.46V34.04H438.51V40.22C438.51 41.3 438.783 42.1333 439.33 42.72C439.876 43.2933 440.623 43.58 441.57 43.58C442.543 43.58 443.31 43.28 443.87 42.68C444.43 42.08 444.71 41.2067 444.71 40.06V34.04H446.53ZM453.483 45.18C452.643 45.18 451.889 45.04 451.223 44.76C450.556 44.4667 450.029 44.0667 449.643 43.56C449.256 43.04 449.043 42.4467 449.003 41.78H450.883C450.936 42.3267 451.189 42.7733 451.643 43.12C452.109 43.4667 452.716 43.64 453.463 43.64C454.156 43.64 454.703 43.4867 455.103 43.18C455.503 42.8733 455.703 42.4867 455.703 42.02C455.703 41.54 455.489 41.1867 455.063 40.96C454.636 40.72 453.976 40.4867 453.083 40.26C452.269 40.0467 451.603 39.8333 451.083 39.62C450.576 39.3933 450.136 39.0667 449.763 38.64C449.403 38.2 449.223 37.6267 449.223 36.92C449.223 36.36 449.389 35.8467 449.723 35.38C450.056 34.9133 450.529 34.5467 451.143 34.28C451.756 34 452.456 33.86 453.243 33.86C454.456 33.86 455.436 34.1667 456.183 34.78C456.929 35.3933 457.329 36.2333 457.383 37.3H455.563C455.523 36.7267 455.289 36.2667 454.863 35.92C454.449 35.5733 453.889 35.4 453.183 35.4C452.529 35.4 452.009 35.54 451.623 35.82C451.236 36.1 451.043 36.4667 451.043 36.92C451.043 37.28 451.156 37.58 451.383 37.82C451.623 38.0467 451.916 38.2333 452.263 38.38C452.623 38.5133 453.116 38.6667 453.743 38.84C454.529 39.0533 455.169 39.2667 455.663 39.48C456.156 39.68 456.576 39.9867 456.923 40.4C457.283 40.8133 457.469 41.3533 457.483 42.02C457.483 42.62 457.316 43.16 456.983 43.64C456.649 44.12 456.176 44.5 455.563 44.78C454.963 45.0467 454.269 45.18 453.483 45.18ZM479.984 34.04L476.564 45H474.684L472.044 36.3L469.404 45H467.524L464.084 34.04H465.944L468.464 43.24L471.184 34.04H473.044L475.704 43.26L478.184 34.04H479.984ZM486.57 45.18C485.543 45.18 484.61 44.9467 483.77 44.48C482.943 44.0133 482.29 43.3533 481.81 42.5C481.343 41.6333 481.11 40.6333 481.11 39.5C481.11 38.38 481.35 37.3933 481.83 36.54C482.323 35.6733 482.99 35.0133 483.83 34.56C484.67 34.0933 485.61 33.86 486.65 33.86C487.69 33.86 488.63 34.0933 489.47 34.56C490.31 35.0133 490.97 35.6667 491.45 36.52C491.943 37.3733 492.19 38.3667 492.19 39.5C492.19 40.6333 491.937 41.6333 491.43 42.5C490.937 43.3533 490.263 44.0133 489.41 44.48C488.557 44.9467 487.61 45.18 486.57 45.18ZM486.57 43.58C487.223 43.58 487.837 43.4267 488.41 43.12C488.983 42.8133 489.443 42.3533 489.79 41.74C490.15 41.1267 490.33 40.38 490.33 39.5C490.33 38.62 490.157 37.8733 489.81 37.26C489.463 36.6467 489.01 36.1933 488.45 35.9C487.89 35.5933 487.283 35.44 486.63 35.44C485.963 35.44 485.35 35.5933 484.79 35.9C484.243 36.1933 483.803 36.6467 483.47 37.26C483.137 37.8733 482.97 38.62 482.97 39.5C482.97 40.3933 483.13 41.1467 483.45 41.76C483.783 42.3733 484.223 42.8333 484.77 43.14C485.317 43.4333 485.917 43.58 486.57 43.58ZM496.403 35.82C496.723 35.1933 497.176 34.7067 497.763 34.36C498.363 34.0133 499.09 33.84 499.943 33.84V35.72H499.463C497.423 35.72 496.403 36.8267 496.403 39.04V45H494.583V34.04H496.403V35.82ZM508.164 45L503.864 40.16V45H502.044V30.2H503.864V38.9L508.084 34.04H510.624L505.464 39.5L510.644 45H508.164Z" fill="black"/>
<defs>
<filter id="filter0_d_107_25" x="0.1" y="0.1" width="542.8" height="82.8" filterUnits="userSpaceOnUse" color-interpolation-filters="sRGB">
<feFlood flood-opacity="0" result="BackgroundImageFix"/>
<feColorMatrix in="SourceAlpha" type="matrix" values="0 0 0 0 0 0 0 0 0 0 0 0 0 0 0 0 0 0 127 0" result="hardAlpha"/>
<feOffset dy="4"/>
<feGaussianBlur stdDeviation="10.45"/>
<feComposite in2="hardAlpha" operator="out"/>
<feColorMatrix type="matrix" values="0 0 0 0 0 0 0 0 0 0 0 0 0 0 0 0 0 0 0.25 0"/>
<feBlend mode="normal" in2="BackgroundImageFix" result="effect1_dropShadow_107_25"/>
<feBlend mode="normal" in="SourceGraphic" in2="effect1_dropShadow_107_25" result="shape"/>
</filter>
</defs>
</svg>
